<?xml version="1.0" standalone="no"?>
<!DOCTYPE svg PUBLIC "-//W3C//DTD SVG 20010904//EN"
 "http://www.w3.org/TR/2001/REC-SVG-20010904/DTD/svg10.dtd">
<svg version="1.0" xmlns="http://www.w3.org/2000/svg"
 width="4000.000000pt" height="3000.000000pt" viewBox="0 0 4000.000000 3000.000000"
 preserveAspectRatio="xMidYMid meet">

<g transform="translate(0.000000,3000.000000) scale(0.100000,-0.100000)"
fill="#000000" stroke="none">
<path d="M0 15000 l0 -15000 20000 0 20000 0 0 15000 0 15000 -20000 0 -20000
0 0 -15000z m18002 10433 c50 -45 -19 -106 -83 -73 -23 13 -24 38 -3 68 18 26
60 29 86 5z m-2940 -2727 c22 -51 -17 -74 -62 -38 -19 16 -21 22 -11 40 16 31
58 29 73 -2z m338 -521 c17 -20 5 -45 -20 -45 -23 0 -35 22 -26 45 7 19 30 19
46 0z m-9880 -489 c0 -41 -81 -60 -103 -25 -16 26 0 66 30 77 24 9 31 7 51
-14 12 -14 22 -31 22 -38z m19540 -981 c0 -20 -5 -25 -24 -25 -14 0 -28 5 -31
10 -12 19 4 40 30 40 20 0 25 -5 25 -25z m-16302 -501 c28 -19 28 -32 0 -61
-41 -44 -108 -24 -108 33 0 40 67 57 108 28z m9486 -46 c23 -37 -44 -89 -93
-72 -32 12 -38 37 -16 70 14 21 23 25 57 22 26 -2 45 -10 52 -20z m-5609 -158
c0 -27 -6 -38 -26 -49 -24 -13 -29 -13 -53 2 -32 21 -34 59 -6 87 18 18 23 19
53 7 27 -11 32 -19 32 -47z m-9817 -47 c18 -24 15 -41 -13 -68 -43 -44 -94
-24 -95 37 0 52 75 74 108 31z m-2493 -1103 c0 -18 -6 -26 -23 -28 -13 -2 -25
3 -28 12 -10 26 4 48 28 44 17 -2 23 -10 23 -28z m7926 -401 c24 -12 42 -55
34 -79 -9 -29 -52 -34 -86 -10 -33 24 -37 54 -12 82 18 21 36 23 64 7z m-503
-359 c9 0 12 -15 10 -52 -3 -50 -5 -53 -31 -56 -44 -5 -77 22 -77 64 0 38 26
57 65 49 11 -3 26 -5 33 -5z m21602 -295 c18 -21 4 -64 -25 -77 -19 -9 -29 -7
-50 6 -14 9 -25 24 -25 33 0 44 72 71 100 38z m-19474 -676 c19 -22 19 -22 -3
-10 -24 12 -39 31 -25 31 5 0 17 -10 28 -21z m-4820 -106 c5 -19 2 -30 -11
-40 -25 -18 -30 -17 -62 12 -27 24 -28 25 -9 40 11 8 32 15 48 15 22 0 29 -6
34 -27z m-2256 -32 l35 -28 132 4 c93 4 133 2 133 -6 0 -6 -12 -10 -27 -9 -16
1 -74 1 -130 0 -94 -2 -104 -4 -129 -27 -26 -24 -65 -32 -98 -19 -28 11 -20
69 12 93 15 11 29 21 32 21 3 0 21 -13 40 -29z m16241 -71 c21 -12 25 -50 9
-79 -8 -15 -16 -17 -47 -10 -76 16 -84 20 -68 36 8 8 15 21 15 28 0 29 55 44
91 25z m-136 -80 c-3 -5 -16 -10 -28 -9 -20 1 -20 2 3 9 14 4 26 8 28 9 2 1 0
-3 -3 -9z m-8341 -191 c32 -25 32 -36 4 -66 -27 -29 -57 -29 -87 -2 -28 26
-24 59 9 76 34 17 43 16 74 -8z m1335 -57 c38 -28 40 -74 5 -101 -35 -28 -47
-27 -108 9 -49 27 -63 30 -212 40 -218 14 -518 40 -523 46 -8 8 193 4 426 -8
l233 -11 37 27 c31 22 46 26 77 22 22 -2 51 -13 65 -24z m-2461 -319 c2 -8 -5
-13 -17 -13 -12 0 -21 6 -21 16 0 18 31 15 38 -3z m7779 -160 c-10 -59 -59
-82 -99 -46 -41 37 -8 83 60 83 l45 0 -6 -37z m-9998 -670 c18 -16 19 -21 8
-43 -8 -16 -23 -26 -39 -28 -22 -3 -29 2 -34 23 -4 18 -1 32 11 45 22 24 27
25 54 3z m13105 -552 c25 -21 51 -41 58 -44 26 -9 1 -15 -77 -18 l-80 -4 -3
38 c-6 76 34 87 102 28z m558 -103 c76 -12 135 -24 133 -26 -5 -5 -226 26
-270 38 -57 15 0 10 137 -12z m1147 -144 c25 -32 29 -94 6 -94 -25 0 -175 61
-175 70 0 17 74 49 112 50 28 0 41 -6 57 -26z m-609 -100 c-166 -27 -215 -34
-240 -33 -58 3 215 47 285 47 25 0 9 -5 -45 -14z m-349 -20 c8 -8 26 -14 40
-14 15 0 19 -3 12 -8 -6 -4 -16 -20 -22 -35 -9 -23 -16 -27 -49 -27 -22 0 -53
5 -70 11 -27 9 -31 14 -28 47 1 29 7 38 26 43 31 9 70 2 91 -17z m109 -104
c12 -8 12 -10 -2 -15 -23 -9 -50 -3 -56 13 -4 14 36 16 58 2z m1007 -112 c25
-40 54 -85 65 -100 10 -15 18 -33 18 -39 0 -7 -28 32 -63 87 -81 128 -79 124
-73 124 3 0 27 -33 53 -72z m-2409 -235 c13 -26 4 -43 -23 -43 -30 0 -42 30
-19 47 24 17 32 16 42 -4z m2840 -389 c12 -8 22 -24 22 -35 0 -29 -63 -27 -84
3 -28 40 17 64 62 32z m-16284 -210 c11 -4 16 -19 16 -45 0 -31 -5 -42 -26
-56 -24 -15 -29 -15 -53 -2 -37 21 -40 61 -5 88 28 22 42 25 68 15z m18142
-148 c6 -6 14 -32 18 -58 5 -43 3 -48 -13 -48 -31 0 -108 37 -115 55 -10 28
-7 35 26 55 33 20 62 19 84 -4z m-23676 -206 c52 -52 -6 -101 -62 -52 -32 27
-14 71 30 72 6 0 21 -9 32 -20z m23843 -165 c30 -50 63 -108 75 -130 11 -22
59 -102 106 -178 47 -76 86 -140 86 -141 0 -3 157 -259 211 -344 7 -12 29 -27
46 -33 80 -26 58 -111 -29 -113 -24 -1 -28 4 -34 38 -7 43 0 39 -222 131 -62
26 -111 49 -109 51 2 2 21 -3 43 -12 85 -36 269 -104 281 -104 7 0 13 5 13 11
0 6 -51 97 -114 203 -62 105 -139 236 -171 291 -33 55 -89 146 -127 202 -37
56 -86 135 -108 175 -74 135 -40 105 53 -47z m-6205 2 c2 -21 -2 -45 -9 -53
-16 -19 -52 -18 -79 4 -43 35 -3 94 60 89 21 -2 25 -8 28 -40z m5032 -132 c34
-18 38 -35 13 -58 -39 -34 -96 -22 -112 24 -6 17 -8 35 -5 40 8 14 72 10 104
-6z m-10700 -15 c0 -5 -7 -10 -15 -10 -8 0 -15 5 -15 10 0 6 7 10 15 10 8 0
15 -4 15 -10z m-11240 -135 c17 -9 30 -18 30 -21 0 -4 -59 23 -69 32 -10 9 13
3 39 -11z m119 -71 c14 -12 -19 -1 -35 12 -18 14 -18 14 6 3 14 -6 27 -13 29
-15z m317 -122 c6 -4 17 -18 24 -31 11 -22 10 -27 -14 -48 -47 -40 -84 -23
-101 49 -5 20 -3 27 12 31 29 8 67 7 79 -1z m22759 -223 c22 -11 29 -16 15
-13 -14 4 -43 15 -65 25 -22 11 -29 16 -15 13 14 -4 43 -15 65 -25z m-19557
-541 c7 -7 12 -24 12 -39 0 -48 -47 -77 -94 -60 -40 16 -37 65 7 91 37 23 58
25 75 8z m9696 -427 c10 -11 16 -28 14 -38 -8 -43 -88 -14 -88 32 0 21 5 25
28 25 16 0 37 -9 46 -19z m4417 -179 c26 -22 22 -43 -16 -68 -52 -34 -103 26
-59 70 21 21 47 20 75 -2z m-4112 -445 c6 -8 28 -19 50 -25 68 -21 78 -62 24
-97 -24 -16 -28 -16 -59 -1 -30 14 -34 20 -34 55 0 23 -6 44 -15 51 -13 11
-13 15 -3 21 18 12 24 11 37 -4z m15112 -228 c35 -35 7 -78 -43 -66 -34 9 -42
43 -17 68 24 24 34 24 60 -2z m-17133 -521 c18 -18 15 -42 -7 -62 -27 -25 -55
-17 -59 16 -2 18 4 31 20 42 27 19 31 19 46 4z m2107 -1079 c0 -27 -5 -36 -29
-48 -37 -18 -60 -5 -64 36 -2 24 3 36 24 52 24 19 30 20 48 7 14 -9 21 -24 21
-47z m2654 -338 c16 -28 -13 -51 -36 -28 -18 18 -11 47 11 47 9 0 20 -9 25
-19z m-12699 -1416 c15 -18 -2 -45 -30 -45 -23 0 -34 28 -19 46 15 18 33 18
49 -1z m-3791 -164 c22 -14 4 -51 -25 -51 -29 0 -42 24 -24 45 14 17 29 19 49
6z"/>
</g>
</svg>
